<?xml version="1.0" encoding="UTF-8" standalone="no"?>
<!-- Created with Inkscape (http://www.inkscape.org/) -->

<svg
   xmlns:dc="http://purl.org/dc/elements/1.1/"
   xmlns:cc="http://creativecommons.org/ns#"
   xmlns:rdf="http://www.w3.org/1999/02/22-rdf-syntax-ns#"
   xmlns:svg="http://www.w3.org/2000/svg"
   xmlns="http://www.w3.org/2000/svg"
   xmlns:sodipodi="http://sodipodi.sourceforge.net/DTD/sodipodi-0.dtd"
   xmlns:inkscape="http://www.inkscape.org/namespaces/inkscape"
   width="512"
   height="512"
   id="svg2"
   version="1.1"
   inkscape:version="0.48.4 r9939"
   sodipodi:docname="New document 1">
  <defs
     id="defs4" />
  <sodipodi:namedview
     id="base"
     pagecolor="#ffffff"
     bordercolor="#666666"
     borderopacity="1.0"
     inkscape:pageopacity="0.0"
     inkscape:pageshadow="2"
     inkscape:zoom="1.4"
     inkscape:cx="171.06973"
     inkscape:cy="239.96884"
     inkscape:document-units="px"
     inkscape:current-layer="layer1"
     showgrid="false"
     inkscape:window-width="1920"
     inkscape:window-height="1018"
     inkscape:window-x="-6"
     inkscape:window-y="-6"
     inkscape:window-maximized="1" />
  <metadata
     id="metadata7">
    <rdf:RDF>
      <cc:Work
         rdf:about="">
        <dc:format>image/svg+xml</dc:format>
        <dc:type
           rdf:resource="http://purl.org/dc/dcmitype/StillImage" />
        <dc:title></dc:title>
      </cc:Work>
    </rdf:RDF>
  </metadata>
  <g
     inkscape:label="Layer 1"
     inkscape:groupmode="layer"
     id="layer1"
     transform="translate(0,-540.36218)">
    <path
       style="fill:none;stroke:#000000;stroke-width:20;stroke-linecap:butt;stroke-linejoin:miter;stroke-miterlimit:4;stroke-opacity:1;stroke-dasharray:none"
       d="m 213.39435,990.34305 c 0,0 34.72551,12.30595 52.76094,12.01945 14.95513,-0.2377 43.41093,-11.35169 43.41093,-11.35169 0,0 -13.34344,-75.89448 -12.68935,-114.1847 0.55321,-32.38617 14.02505,-96.15555 14.02505,-96.15555 l 24.04297,-1.33549 c 0,0 31.01907,-19.54398 40.07161,-34.72284 7.35816,-12.33783 10.65259,-27.76245 9.35003,-42.06804 -1.70936,-18.77366 -10.6567,-37.05596 -22.03937,-52.08427 -17.21136,-22.72384 -40.12181,-43.33192 -66.78602,-53.41973 -17.09373,-6.46704 -36.62759,-4.92542 -54.76452,-2.67102 -13.62735,1.6939 -27.10054,5.92086 -39.40375,12.01947 -16.71724,8.28659 -33.39243,18.45224 -45.4145,32.71959 -13.08645,15.53054 -24.66493,34.55138 -26.7144,54.75524 -1.6236,16.00553 3.77765,32.92656 12.02148,46.74229 10.41186,17.44908 44.74664,41.4003 44.74664,41.4003 l 22.70724,-0.66776 c 0,0 13.65208,63.30088 14.69293,95.48781 1.22773,37.96616 -10.01791,113.51694 -10.01791,113.51694 z"
       id="path2996"
       inkscape:connector-curvature="0"
       sodipodi:nodetypes="cacaccaaaaaaaaaccac" />
  </g>
</svg>
