<?xml version="1.0" encoding="UTF-8" standalone="no"?>
<!-- Created with Inkscape (http://www.inkscape.org/) -->

<svg
   xmlns:dc="http://purl.org/dc/elements/1.1/"
   xmlns:cc="http://creativecommons.org/ns#"
   xmlns:rdf="http://www.w3.org/1999/02/22-rdf-syntax-ns#"
   xmlns:svg="http://www.w3.org/2000/svg"
   xmlns="http://www.w3.org/2000/svg"
   xmlns:sodipodi="http://sodipodi.sourceforge.net/DTD/sodipodi-0.dtd"
   xmlns:inkscape="http://www.inkscape.org/namespaces/inkscape"
   width="512"
   height="512"
   id="svg2"
   version="1.1"
   inkscape:version="0.48.4 r9939"
   sodipodi:docname="skeleton.svg">
  <defs
     id="defs4" />
  <sodipodi:namedview
     id="base"
     pagecolor="#ffffff"
     bordercolor="#666666"
     borderopacity="1.0"
     inkscape:pageopacity="0.0"
     inkscape:pageshadow="2"
     inkscape:zoom="1.4"
     inkscape:cx="339.07711"
     inkscape:cy="205.69433"
     inkscape:document-units="px"
     inkscape:current-layer="layer1"
     showgrid="false"
     inkscape:window-width="1920"
     inkscape:window-height="1018"
     inkscape:window-x="-6"
     inkscape:window-y="-6"
     inkscape:window-maximized="1" />
  <metadata
     id="metadata7">
    <rdf:RDF>
      <cc:Work
         rdf:about="">
        <dc:format>image/svg+xml</dc:format>
        <dc:type
           rdf:resource="http://purl.org/dc/dcmitype/StillImage" />
        <dc:title></dc:title>
      </cc:Work>
    </rdf:RDF>
  </metadata>
  <g
     inkscape:label="Layer 1"
     inkscape:groupmode="layer"
     id="layer1"
     transform="translate(0,-540.36218)">
    <path
       style="fill:none;stroke:#000000;stroke-width:20;stroke-linecap:butt;stroke-linejoin:miter;stroke-miterlimit:4;stroke-opacity:1;stroke-dasharray:none"
       d="m 254.28571,44.142857 c 15.22245,0.36926 30.75154,2.486786 45,7.857143 20.09857,7.575309 39.53946,18.661378 55,33.571428 12.7389,12.285318 23.35091,27.612782 29.28572,44.285712 6.41936,18.03418 6.30922,38.00949 5.71428,57.14286 -0.36739,11.81542 -5.71428,35 -5.71428,35 l -9.28572,38.57143 11.42858,8.57143 c 0,0 -2.89203,28.1928 -10.71429,39.28571 -5.51925,7.82696 -23.57143,16.42857 -23.57143,16.42857 0,0 -1.08589,36.21967 -5.71428,53.57143 -3.95642,14.83254 -9.83106,29.52289 -18.57143,42.14286 -8.72353,12.59565 -19.335,24.93854 -32.85714,32.14286 -11.37436,6.06002 -24.97726,7.4008 -37.85715,7.85714 -12.4848,0.44234 -25.51285,-0.43836 -37.14286,-5 -11.9303,-4.67943 -22.92573,-12.55481 -31.42857,-22.14286 -9.32993,-10.52069 -14.96393,-24.01387 -20,-37.14286 -6.49408,-16.93 -10.33951,-34.89998 -12.85714,-52.85714 -0.82711,-5.89944 -0.71429,-17.85714 -0.71429,-17.85714 0,0 -17.43377,-8.22599 -22.85714,-15.71429 -8.44098,-11.65487 -12.14286,-41.42857 -12.14286,-41.42857 l 11.42858,-7.85714 -9.28572,-36.42857 c 0,0 -7.15295,-36.55608 -6.42857,-55 0.72383,-18.43011 2.86075,-37.59696 10.71429,-54.28572 7.85353,-16.68876 20.42534,-31.55351 35,-42.85714 13.88944,-10.7722 30.95895,-17.304663 47.85714,-22.142858 14.76347,-4.226995 30.36212,-6.086691 45.71428,-5.714285 z"
       id="path3779"
       inkscape:connector-curvature="0"
       transform="translate(0,540.36218)"
       sodipodi:nodetypes="aaaaacccacaaaaaaaacacccaaaaa" />
    <path
       style="fill:none;stroke:#000000;stroke-width:20;stroke-linecap:butt;stroke-linejoin:miter;stroke-miterlimit:4;stroke-opacity:1;stroke-dasharray:none"
       d="m 180.71429,219.85714 c 11.41728,-1.97131 24.8676,-1.03401 34.28571,5.71429 9.00538,6.45256 16.33336,18.22455 15.71429,29.28571 -0.67907,12.1332 -10.74014,23.05795 -20.71429,30 -10.28518,7.15853 -24.48524,13.07867 -36.42857,9.28572 -10.14085,-3.22052 -17.33566,-14.19644 -20.71429,-24.28572 -3.78705,-11.30892 -4.21047,-25.62127 2.14286,-35.71428 5.22353,-8.29819 16.05189,-12.6174 25.71429,-14.28572 z"
       id="path3781"
       inkscape:connector-curvature="0"
       transform="translate(0,540.36218)"
       sodipodi:nodetypes="aaaaaaaa" />
    <path
       style="fill:none;stroke:#000000;stroke-width:20;stroke-linecap:butt;stroke-linejoin:miter;stroke-miterlimit:4;stroke-opacity:1;stroke-dasharray:none"
       d="m 287.85714,225.57143 c 11.01289,-6.84106 25.99206,-8.13741 38.57143,-5 10.76903,2.68589 22.1386,9.37898 27.14286,19.28571 6.12001,12.11552 6.78164,29.39831 -0.71429,40.71429 -6.475,9.77476 -20.44543,15.08689 -32.14285,14.28571 C 306.73982,293.9 294.20464,283.27253 285,272.71429 278.83616,265.64401 272.77614,256.34609 273.57143,247 c 0.72787,-8.55373 6.99347,-16.89873 14.28571,-21.42857 z"
       id="path3783"
       inkscape:connector-curvature="0"
       transform="translate(0,540.36218)"
       sodipodi:nodetypes="aaaaaaaa" />
    <path
       style="fill:none;stroke:#000000;stroke-width:20;stroke-linecap:butt;stroke-linejoin:miter;stroke-miterlimit:4;stroke-opacity:1;stroke-dasharray:none"
       d="m 253.57143,272 c 0,0 21.61698,20.31857 23.21428,33.92857 1.27822,10.89121 -2.74876,24.50253 -11.78571,30.71429 -6.08257,4.181 -15.91202,3.95666 -22.14286,0 C 233.64093,330.79044 227.97888,317.876 228.92857,307 c 1.24119,-14.21426 24.64286,-35 24.64286,-35 z"
       id="path3787"
       inkscape:connector-curvature="0"
       transform="translate(0,540.36218)"
       sodipodi:nodetypes="caaaac" />
    <path
       style="fill:none;stroke:#000000;stroke-width:20;stroke-linecap:butt;stroke-linejoin:miter;stroke-miterlimit:4;stroke-opacity:1;stroke-dasharray:none"
       d="m 170.46324,325.12178 c 0,0 17.56055,-0.49091 22.22336,5.55584 4.26687,5.53331 -3.51243,14.7803 -0.25254,20.96066 3.96481,7.51681 13.44541,10.69487 21.2132,14.14214 7.85645,3.48662 16.46281,5.32604 25.00128,6.31345 9.78521,1.13158 19.80295,0.93897 29.54696,-0.50507 10.04257,-1.48828 20.44431,-3.35943 29.29442,-8.33376 5.40046,-3.03541 11.0064,-7.01814 13.63706,-12.62691 2.68474,-5.72409 -2.92653,-13.99308 1.01016,-18.94036 4.74462,-5.9626 21.97081,-6.31345 21.97081,-6.31345 0,0 2.65426,16.05224 0.75762,23.73858 -2.94414,11.93145 -10.73981,22.29328 -18.18275,32.07235 -7.42633,9.75725 -15.30204,20.03954 -26.01142,26.01142 -9.59416,5.35 -21.12538,6.66277 -32.07235,7.57615 -10.2563,0.85575 -21.1367,1.49509 -30.80965,-2.02031 -12.0582,-4.38227 -22.12269,-13.52572 -31.06219,-22.72843 -7.76053,-7.98903 -13.50521,-17.80505 -18.94036,-27.52666 -3.14488,-5.6251 -6.57595,-11.35606 -7.82868,-17.67767 -1.27676,-6.44286 0.50507,-19.69797 0.50507,-19.69797 z"
       id="path3789"
       inkscape:connector-curvature="0"
       transform="translate(0,540.36218)"
       sodipodi:nodetypes="caaaaaaaacaaaaaaaac" />
    <path
       style="fill:none;stroke:#000000;stroke-width:10;stroke-linecap:butt;stroke-linejoin:miter;stroke-opacity:1;stroke-miterlimit:4;stroke-dasharray:none"
       d="m 200,366.28571 -0.71429,17.5"
       id="path3791"
       inkscape:connector-curvature="0"
       transform="translate(0,540.36218)" />
    <path
       style="fill:none;stroke:#000000;stroke-width:10;stroke-linecap:butt;stroke-linejoin:miter;stroke-opacity:1;stroke-miterlimit:4;stroke-dasharray:none"
       d="m 222.14286,373.78571 0.17857,29.10715"
       id="path3793"
       inkscape:connector-curvature="0"
       transform="translate(0,540.36218)" />
    <path
       style="fill:none;stroke:#000000;stroke-width:10;stroke-linecap:butt;stroke-linejoin:miter;stroke-opacity:1;stroke-miterlimit:4;stroke-dasharray:none"
       d="m 254.82143,377.71429 0,30.71428"
       id="path3795"
       inkscape:connector-curvature="0"
       transform="translate(0,540.36218)" />
    <path
       style="fill:none;stroke:#000000;stroke-width:10;stroke-linecap:butt;stroke-linejoin:miter;stroke-opacity:1;stroke-miterlimit:4;stroke-dasharray:none"
       d="m 286.60714,372.71429 1.78572,27.5"
       id="path3797"
       inkscape:connector-curvature="0"
       transform="translate(0,540.36218)" />
    <path
       style="fill:none;stroke:#000000;stroke-width:10;stroke-linecap:butt;stroke-linejoin:miter;stroke-opacity:1;stroke-miterlimit:4;stroke-dasharray:none"
       d="m 311.25,360.03571 -0.35714,23.92858"
       id="path3799"
       inkscape:connector-curvature="0"
       transform="translate(0,540.36218)" />
  </g>
</svg>
