<?xml version="1.0" encoding="UTF-8" standalone="no"?>
<!-- Created with Inkscape (http://www.inkscape.org/) -->

<svg
   xmlns:dc="http://purl.org/dc/elements/1.1/"
   xmlns:cc="http://creativecommons.org/ns#"
   xmlns:rdf="http://www.w3.org/1999/02/22-rdf-syntax-ns#"
   xmlns:svg="http://www.w3.org/2000/svg"
   xmlns="http://www.w3.org/2000/svg"
   xmlns:sodipodi="http://sodipodi.sourceforge.net/DTD/sodipodi-0.dtd"
   xmlns:inkscape="http://www.inkscape.org/namespaces/inkscape"
   width="512"
   height="512"
   id="svg2"
   version="1.1"
   inkscape:version="0.48.4 r9939"
   sodipodi:docname="superspell.svg">
  <defs
     id="defs4">
    <marker
       inkscape:stockid="TriangleInS"
       orient="auto"
       refY="0.0"
       refX="0.0"
       id="TriangleInS"
       style="overflow:visible">
      <path
         id="path3999"
         d="M 5.77,0.0 L -2.88,5.0 L -2.88,-5.0 L 5.77,0.0 z "
         style="fill-rule:evenodd;stroke:#000000;stroke-width:1.0pt"
         transform="scale(-0.2)" />
    </marker>
    <marker
       inkscape:stockid="Arrow1Sstart"
       orient="auto"
       refY="0.0"
       refX="0.0"
       id="Arrow1Sstart"
       style="overflow:visible">
      <path
         id="path3872"
         d="M 0.0,0.0 L 5.0,-5.0 L -12.5,0.0 L 5.0,5.0 L 0.0,0.0 z "
         style="fill-rule:evenodd;stroke:#000000;stroke-width:1.0pt"
         transform="scale(0.2) translate(6,0)" />
    </marker>
    <marker
       inkscape:stockid="Arrow2Send"
       orient="auto"
       refY="0.0"
       refX="0.0"
       id="Arrow2Send"
       style="overflow:visible;">
      <path
         id="path3893"
         style="fill-rule:evenodd;stroke-width:0.62500000;stroke-linejoin:round;"
         d="M 8.7185878,4.0337352 L -2.2072895,0.016013256 L 8.7185884,-4.0017078 C 6.9730900,-1.6296469 6.9831476,1.6157441 8.7185878,4.0337352 z "
         transform="scale(0.3) rotate(180) translate(-2.3,0)" />
    </marker>
    <marker
       inkscape:stockid="DotL"
       orient="auto"
       refY="0.0"
       refX="0.0"
       id="DotL"
       style="overflow:visible">
      <path
         id="path3921"
         d="M -2.5,-1.0 C -2.5,1.7600000 -4.7400000,4.0 -7.5,4.0 C -10.260000,4.0 -12.5,1.7600000 -12.5,-1.0 C -12.5,-3.7600000 -10.260000,-6.0 -7.5,-6.0 C -4.7400000,-6.0 -2.5,-3.7600000 -2.5,-1.0 z "
         style="fill-rule:evenodd;stroke:#000000;stroke-width:1.0pt"
         transform="scale(0.8) translate(7.4, 1)" />
    </marker>
    <marker
       inkscape:stockid="Arrow2Lstart"
       orient="auto"
       refY="0.0"
       refX="0.0"
       id="Arrow2Lstart"
       style="overflow:visible">
      <path
         id="path3878"
         style="fill-rule:evenodd;stroke-width:0.62500000;stroke-linejoin:round"
         d="M 8.7185878,4.0337352 L -2.2072895,0.016013256 L 8.7185884,-4.0017078 C 6.9730900,-1.6296469 6.9831476,1.6157441 8.7185878,4.0337352 z "
         transform="scale(1.1) translate(1,0)" />
    </marker>
  </defs>
  <sodipodi:namedview
     id="base"
     pagecolor="#ffffff"
     bordercolor="#666666"
     borderopacity="1.0"
     inkscape:pageopacity="0.0"
     inkscape:pageshadow="2"
     inkscape:zoom="1.4"
     inkscape:cx="147.31087"
     inkscape:cy="266.25386"
     inkscape:document-units="px"
     inkscape:current-layer="layer1"
     showgrid="false"
     inkscape:window-width="1920"
     inkscape:window-height="1018"
     inkscape:window-x="-6"
     inkscape:window-y="-6"
     inkscape:window-maximized="1" />
  <metadata
     id="metadata7">
    <rdf:RDF>
      <cc:Work
         rdf:about="">
        <dc:format>image/svg+xml</dc:format>
        <dc:type
           rdf:resource="http://purl.org/dc/dcmitype/StillImage" />
        <dc:title></dc:title>
      </cc:Work>
    </rdf:RDF>
  </metadata>
  <g
     inkscape:label="Layer 1"
     inkscape:groupmode="layer"
     id="layer1"
     transform="translate(0,-540.36218)">
    <g
       id="g6201"
       transform="matrix(0.88838042,0,0,0.88838042,30.731345,118.58252)">
      <path
         sodipodi:nodetypes="ccaacccaaaaaacaaaaaacc"
         transform="translate(0,540.36218)"
         inkscape:connector-curvature="0"
         id="path6197"
         d="M 54.548237,446.34008 235.36554,433.2081 c 0,0 5.19102,5.58136 8.5863,7.07107 5.60346,2.45856 12.33874,4.33945 18.18275,2.52538 5.00778,-1.55449 11.61675,-10.6066 11.61675,-10.6066 L 456.08387,445.83501 406.5864,336.73853 c 0,0 -6.74416,0.25675 -10.10153,0 -6.6239,-0.50655 -13.3112,-1.2024 -19.69797,-3.03045 -7.3961,-2.11694 -13.8431,-6.88562 -21.2132,-9.09138 -9.17513,-2.74598 -18.7146,-4.67038 -28.28428,-5.05076 -6.93001,-0.27546 -13.87393,0.83932 -20.70812,2.02031 -7.52425,1.30023 -14.972,3.16359 -22.22336,5.55583 -10.03576,3.31082 -29.29442,12.12183 -29.29442,12.12183 0,0 -17.65992,-11.18612 -27.27412,-15.15228 -7.43964,-3.06909 -15.23713,-5.65739 -23.23351,-6.566 -10.21655,-1.16089 -20.68999,-0.30631 -30.80965,1.51523 -7.12685,1.28284 -13.95262,3.95818 -20.70813,6.566 -4.14657,1.60069 -7.92293,4.09794 -12.12183,5.55583 -6.05624,2.10278 -12.33439,3.68916 -18.68782,4.54569 -5.67533,0.76512 -17.1726,0.50508 -17.1726,0.50508 z"
         style="fill:none;stroke:#000000;stroke-width:22.51287842;stroke-linecap:butt;stroke-linejoin:miter;stroke-miterlimit:4;stroke-opacity:1;stroke-dasharray:none" />
      <path
         transform="translate(0,540.36218)"
         inkscape:connector-curvature="0"
         id="path6199"
         d="m 253.54829,341.28422 1.51523,95.96449"
         style="fill:none;stroke:#000000;stroke-width:11.25643921;stroke-linecap:butt;stroke-linejoin:miter;stroke-miterlimit:4;stroke-opacity:1;stroke-dasharray:none" />
    </g>
    <path
       style="fill:none;stroke:#000000;stroke-width:10;stroke-linecap:round;stroke-linejoin:miter;stroke-miterlimit:4;stroke-opacity:1;stroke-dasharray:none"
       d="m 284.28571,845.21932 c 0,0 16.31445,-50.70452 31.42857,-72.14285 18.24698,-25.88208 42.87523,-47.52658 69.28572,-65 22.1376,-14.64644 72.85714,-32.14286 72.85714,-32.14286"
       id="path6211"
       inkscape:connector-curvature="0"
       sodipodi:nodetypes="caac" />
    <path
       style="fill:none;stroke:#000000;stroke-width:10;stroke-linecap:round;stroke-linejoin:miter;stroke-miterlimit:4;stroke-opacity:1;stroke-dasharray:none"
       d="m 234.64286,844.14789 c 0,0 -16.31445,-50.70452 -31.42857,-72.14285 -18.24698,-25.88208 -42.87523,-47.52658 -69.28572,-65 -22.1376,-14.64644 -72.857143,-32.14286 -72.857143,-32.14286"
       id="path6211-4"
       inkscape:connector-curvature="0"
       sodipodi:nodetypes="caac" />
    <path
       sodipodi:type="star"
       style="fill:none;stroke:#000000;stroke-width:24.77420616;stroke-linecap:round;stroke-linejoin:miter;stroke-miterlimit:4;stroke-opacity:1;stroke-dasharray:none"
       id="path6231"
       sodipodi:sides="3"
       sodipodi:cx="182.14285"
       sodipodi:cy="52.714287"
       sodipodi:r1="56.878853"
       sodipodi:r2="17.224199"
       sodipodi:arg1="0.12591263"
       sodipodi:arg2="1.1860498"
       inkscape:flatsided="false"
       inkscape:rounded="-8.6736174e-017"
       inkscape:randomized="0"
       d="M 238.57142,59.857144 188.60751,68.679287 147.74267,98.011433 165.08443,50.330346 160.11446,0.27428325 192.73662,39.133228 z"
       transform="matrix(0.39930518,0,0,0.40803325,78.033972,604.81025)"
       inkscape:transform-center-x="-4.3067369"
       inkscape:transform-center-y="-1.4572686" />
    <path
       sodipodi:type="star"
       style="fill:none;stroke:#000000;stroke-width:24.77420616;stroke-linecap:round;stroke-linejoin:miter;stroke-miterlimit:4;stroke-opacity:1;stroke-dasharray:none"
       id="path6231-0"
       sodipodi:sides="3"
       sodipodi:cx="182.14285"
       sodipodi:cy="52.714287"
       sodipodi:r1="56.878853"
       sodipodi:r2="17.224199"
       sodipodi:arg1="0.12591263"
       sodipodi:arg2="1.1860498"
       inkscape:flatsided="false"
       inkscape:rounded="-8.6736174e-017"
       inkscape:randomized="0"
       d="M 238.57142,59.857144 188.60751,68.679287 147.74267,98.011433 165.08443,50.330346 160.11446,0.27428325 192.73662,39.133228 z"
       transform="matrix(0.154981,-0.36800206,0.3760459,0.15836859,220.09309,774.22456)"
       inkscape:transform-center-x="5.7511389"
       inkscape:transform-center-y="0.18331191" />
    <path
       sodipodi:type="star"
       style="fill:none;stroke:#000000;stroke-width:24.77420616;stroke-linecap:round;stroke-linejoin:miter;stroke-miterlimit:4;stroke-opacity:1;stroke-dasharray:none"
       id="path6231-0-9"
       sodipodi:sides="3"
       sodipodi:cx="182.14285"
       sodipodi:cy="52.714287"
       sodipodi:r1="56.878853"
       sodipodi:r2="17.224199"
       sodipodi:arg1="0.12591263"
       sodipodi:arg2="1.1860498"
       inkscape:flatsided="false"
       inkscape:rounded="-8.6736174e-017"
       inkscape:randomized="0"
       d="M 238.57142,59.857144 188.60751,68.679287 147.74267,98.011433 165.08443,50.330346 160.11446,0.27428325 192.73662,39.133228 z"
       transform="matrix(-0.04784847,-0.39642799,0.40509316,-0.04889435,354.75774,677.53557)"
       inkscape:transform-center-x="0.08582336"
       inkscape:transform-center-y="-5.5577095" />
  </g>
</svg>
